<?xml version="1.0" encoding="UTF-8"?>
<!DOCTYPE svg PUBLIC "-//W3C//DTD SVG 1.1//EN" "http://www.w3.org/Graphics/SVG/1.1/DTD/svg11.dtd">
<!-- Creator: CorelDRAW 2020 (64-Bit) -->
<svg xmlns="http://www.w3.org/2000/svg" xml:space="preserve" width="8.22655in" height="7.99651in" version="1.1" style="shape-rendering:geometricPrecision; text-rendering:geometricPrecision; image-rendering:optimizeQuality; fill-rule:evenodd; clip-rule:evenodd"
viewBox="0 0 8226.55 7996.51"
 xmlns:xlink="http://www.w3.org/1999/xlink"
 xmlns:xodm="http://www.corel.com/coreldraw/odm/2003">
 <defs>
  <style type="text/css">
   <![CDATA[
    .fil0 {fill:green}
   ]]>
  </style>
 </defs>
 <g id="Layer_x0020_1">
  <metadata id="CorelCorpID_0Corel-Layer"/>
  <path class="fil0" d="M3492.77 3177.58c-118.85,11.22 -238.93,27.11 -359.86,47.65 -45.53,7.72 -84.93,16.51 -119.11,26.28 -316.72,334.46 379.14,268.78 458.96,259.8 -279,66.14 -342.91,108.98 -191.76,128.5 776.75,-80.26 1418.15,-5.13 1905.07,194.59 6.07,-11.03 9.42,-28.18 8.19,-44.9l1.25 -32.26c-16.28,-110.1 -224.92,-271 -705.22,-411.9 2.46,0.5 777.82,117.3 416.96,13.56 -423.35,-121.71 -953.41,-202.46 -1414.47,-181.31zm-2677.11 1790.41l-0.14 -0.43c-103.88,-19.97 -204.9,-51.76 -302.47,-96.91 -157.02,-72.67 -286.61,-177.25 -412.99,-293.57 -34.29,-31.57 -9.31,-101.98 40.27,-97.17 179.38,17.47 358.7,7.5 532.22,-28.78 -22.96,-84.59 -43.54,-169.76 -57.24,-256.67 -74.9,-474.78 -24.8,-934.15 172.33,-1374.94 1.72,-3.86 4.63,-7.28 5.86,-11.28 7.21,-22.78 2.21,-55.03 39.49,-55.18 34.1,-0.15 29.59,36.25 44.24,49.98 76.24,71.46 106.28,168.39 149.53,257.02 76.59,156.91 224.47,559.9 390.55,1036.71 82.46,-65.21 160.91,-134.95 240.8,-203.53 -102.19,-311.83 -181.46,-556.68 -201.77,-623.86 -42.5,-140.33 -77.01,-283.46 -196.47,-385.39 -88.02,-75.1 -169.07,-158.52 -258.37,-231.93 -237.15,-194.97 -461.49,-402.83 -653.99,-642.63 -160.73,-200.18 -275.61,-424.87 -324.58,-677.92 -62.33,-321.98 5.36,-625.42 167.16,-904.46 125.28,-216.06 334.16,-328.86 572.35,-372.65 128.46,-23.6 264.43,-18.04 396.28,-2.29 251.63,30 466.76,127.44 621.65,338.96 72.28,98.72 110.28,213.36 166.58,319.25 141.39,265.8 155.79,547.21 118.74,837.41 -34.74,271.92 -150.58,522.04 -209.65,787.61 -21.5,96.75 -41.78,192.87 -44.44,291.5 -3.51,130.48 114.17,546.26 265.68,1028.07 68.62,-4.21 139.7,11.35 192.92,53.96 95.87,76.78 54.96,203.28 38.06,306.07 -15.43,93.9 -23.43,220.61 42.9,298.18 2.2,2.59 3.49,5.44 4.32,8.35 167.47,-86.75 349.32,-140.08 532.59,-182.75 180.65,-42.08 363.79,-72.72 548.5,-90.15 702.48,-66.34 1420.51,14.17 2067.5,301.41 19.83,-55.26 40.43,-112.78 61.56,-171.9 0.12,0.09 -120.19,-106.88 -152.33,-176.33 -47.61,-103.02 -34.44,-229.8 64.85,-296.28 78.8,-52.77 172.86,-36.83 255.2,2.18 178.19,-500.61 355.43,-999.26 422.68,-1173.65 55.52,-143.89 117.17,-285.37 185.33,-423.58 54,-109.52 43.67,-162.56 -62.11,-217.39 -107.54,-55.72 -181.99,-140.64 -233.19,-248.14 -76.44,-160.46 -74.24,-325.37 -31.93,-494.31 50.63,-202 127.56,-394.72 201.35,-588.53 49.72,-130.57 107.49,-257.75 149.49,-391.68 38.98,-124.19 130.06,-176.21 260.75,-169.89 58.2,2.8 115.82,8.35 170.83,26.72 308.78,103.1 625.11,183.39 927.94,304.28 69.03,27.57 138.51,55.94 200.94,98.15 88.24,59.71 125.67,137.5 110,247.06 -12.02,84.13 -57.97,152.6 -82.75,229.99 -80.28,250.75 -178.58,494.24 -292.96,731 -93.99,194.67 -222.87,361.1 -418.03,465.37 -100.17,53.52 -207.67,78.9 -320.71,50.83 -47.93,-11.93 -85.65,2.69 -121.54,28.4 -47.87,34.25 -84.96,79.53 -103.39,135.19 -56.88,171.79 -397.38,1122.21 -578.95,1648.94l0.42 0.3 271.53 191.2c222.35,-525.81 426.73,-1006.01 487.28,-1141.77 61.79,-138.63 115.1,-281.24 187.42,-415.02 47.5,-87.86 108.92,-164.19 194.79,-219.14 69.52,-44.46 144.5,-67.69 226.26,-60.85 43.5,3.67 85.18,-7.83 128.22,-6.1 28.46,1.13 46.39,-16.3 59.86,-43.37 30.96,-62.21 45.96,-125.42 38.02,-195.54 -9.26,-81.74 -9.82,-163.85 20.3,-242.74 35.47,-92.78 96.83,-156.64 200.2,-164.18 104.85,-7.68 188.19,36.26 246.14,123.2 72.81,109.26 64.26,252.85 -23.71,372.85 -49.76,67.93 -107.58,129.87 -158.83,196.79 -62.87,82.08 -56.37,132.85 26.11,200.56 146.83,120.54 171.61,319.68 117.3,492.74 -75.78,241.41 -175.33,476.94 -274.29,709.53 -51.64,121.39 -158.28,369.62 -290.41,677.83 71.37,-17.67 141.15,-41.54 208.17,-71.49 22,-9.8 48.01,-6.68 61.18,16.04 51.58,89.15 -4.03,200.83 -44.67,283.82 -41.89,85.54 -96.8,164.81 -160.44,235.65 -103.81,115.52 -233.59,206.6 -376.8,266.06l0.27 -0.11 -2.78 6.53 -5.72 -3.04c189.7,101.94 406.07,147.15 621.97,126.68 23.9,-2.25 51.89,24.26 48.68,48.69 -34.48,262.43 -325.35,384.97 -554.35,432.07 -123.48,25.4 -250.83,32.47 -376.6,21.49 -220.97,522.34 -413.43,984.91 -480.36,1167.74 -44.67,122.01 -106.46,254.52 -222.01,323.3 -111.44,66.37 -251.44,74.7 -373.67,111.54 -61.5,18.52 -81.53,93.81 -85.71,162.12 -6.29,103.32 -40.49,198.45 -95.97,284.69 -74.52,115.76 -197.29,163.94 -325.04,132.64 -123.35,-30.24 -194.85,-138.17 -171.29,-267.56 35.19,-193.13 345.79,-312.67 289,-514.94 -10.42,-37.07 -40.06,-65.04 -68.15,-91.37 -39.58,-37.16 -78.89,-75.38 -108.51,-120.9 -64.02,-98.38 -45.06,-188.39 -4.56,-291.61 100.85,-256.98 200.18,-514.27 302.24,-770.62 -21.23,-13.32 -42.28,-26.58 -63.29,-39.03 -14.96,-8.85 -30.06,-17.6 -45.21,-26.32 -155.26,354.63 -419.58,942.21 -480.93,1019.68 -50.97,64.34 -112.49,116.46 -199.82,114.24 -235.71,-5.99 -424.97,-192.31 -393.43,-436.14 7.03,-54.39 254.02,-617.67 422.25,-992.68 -149.45,-51.21 -302.67,-91.58 -458.1,-118.76 -497.47,-86.97 -1011.4,-9.44 -1489.28,140.11 -41.5,12.98 -82.8,26.56 -123.9,40.69 19.13,19.83 32.6,46.7 42.99,77.59 13.79,40.96 31.62,80.56 44.19,121.83 63.78,209.28 127.5,418.58 189.21,628.49 48.98,166.63 94.01,334.72 107.32,508.46 7.43,96.93 1.22,195.26 -79.44,267.04 -147.98,131.71 -355.57,115.34 -482.54,-36.52 -37.41,-44.75 -65.83,-95.29 -87.42,-149.04 -40.35,-100.57 -75.97,-203.09 -117.99,-302.96 -102.51,-243.69 -133.39,-507.21 -212.46,-757.29 -10.47,-33.1 -20.6,-66.52 -21.93,-101.89 -53.04,22.37 -107.98,41.52 -164.09,50.16l1.15 -0.18c99.48,303.83 167.36,514.48 176.76,544.92 86.93,281.34 160.57,566.85 271.06,840.81 45.35,112.44 26.28,149.47 -76.42,215.67 -101.24,65.3 -208.22,92.36 -326.9,59.04 -65.14,-18.28 -111.26,-58.53 -142.65,-117.8 -31.9,-60.26 -55.33,-123.97 -74.14,-188.99 -77.7,-268.49 -175.21,-530.83 -247.89,-800.86 -1.56,-5.78 -5.86,-10.81 -12.74,-23.13 -73.02,39.04 -153.08,47.07 -221.37,87.92 -29.38,17.58 -71.3,-4.21 -79.05,-40.11 -22.77,-105.81 -177.15,-580.02 -313.1,-1000.87 -240.86,19.14 -488.78,-20.32 -716.39,-96.13 -46.26,-15.41 -56.79,-95.08 0,-104.7 210.72,-35.71 405.89,-131.33 565.88,-270.09 -8.45,-27.11 -16.22,-52.29 -23.23,-75.34zm1859.66 -1435.78c-0.06,100.42 -6.5,408.04 -12.92,508 -1.97,33.93 21.97,48.97 50.42,44.47 881.33,-190.71 1712.43,-208.18 2436.54,44.7 124.11,43.35 110.83,-36.64 117.56,-77.11 16.01,-96.15 15.85,-366.28 21.26,-434.33 3.18,-40.24 5.17,-76.17 4.83,-108.54 834.64,-168.48 846.7,-1303.3 61.28,-1319.59 45.02,-863.96 -767.33,-985.6 -1224.42,-639.7 -370.24,-286.25 -760.26,-85.63 -943.73,169.78 -123.43,-60.57 -244.86,-54.79 -343.8,-40.28 -116.7,17.11 -227.91,71.35 -323.93,150.79 -95.33,78.85 -175.72,182.5 -231.65,299.22 -85.91,179.33 -115.37,390.28 -55.08,591.86 -443.96,309.64 -305.09,1008.31 443.65,810.72zm2590.55 -1112.53c723.52,-268.69 632,860.33 -5.56,805 -142.19,-12.35 35.46,-319.03 -116.24,-475.08 -1.36,-7.5 -2.82,-15.03 -4.4,-22.57 -0.57,5.53 -1.18,11.02 -1.79,16.44 -1.47,-1.4 -2.92,-2.79 -4.43,-4.17 -47.4,268.62 -287.59,344.58 -455.87,257.91 -235.5,-121.28 -149.42,-436.48 -259.76,-638.78 -54.37,425.07 -313.97,567.44 -560.01,579.08 -574.65,27.13 -509.39,-204.37 -884.52,-233.13 358.09,322.63 -180.11,501.5 -442.78,504.7 -346.91,4.22 -318.5,-321.38 -29.47,-579.07 13.97,-9 27.18,-17.36 39.39,-25.08 -4.3,0.72 -8.58,1.44 -12.85,2.21l8.53 -7.07c-5.37,2.78 -10.57,5.63 -15.85,8.42 -60.14,11.31 -115.48,27.86 -166.02,48.67 -16.18,-59.12 -22.64,-119.35 -20.75,-179 117.48,-599.57 923.97,-681.57 1353.13,-106.86 -49.33,-141.8 -123.32,-258.92 -211.71,-350.39 -42.89,-75.61 -99.49,-144.33 -148.29,-194.49l11.04 2.89c501.87,-339.93 898.06,105.98 998.57,480.46 -18.84,-214.19 -24.13,-436.98 -115.4,-635.7 753.33,-204.41 1234.21,549.33 801.29,961.49 97.57,-53.5 178.83,-125.46 243.75,-215.89zm1763.21 2038.73c123.94,23.54 251.74,28.07 377.46,14.13 205.73,-484.8 385.69,-905.39 458.24,-1066.03 58.57,-129.68 109.71,-262.11 138.76,-402.89 13.87,-67.35 28.82,-135.82 10.25,-196.47 -254.72,-46.92 -499.91,-92.13 -689.79,-293.89 -87.36,68.6 -138.91,166.54 -184.44,267.68 -123.57,274.36 -372.02,830.98 -641.96,1448.76 -0.57,-0.36 358.36,195.85 531.47,228.71zm-177.1 1326.77c-76.74,-15.17 -152.09,-37.23 -224.73,-66.12 -115.4,-45.93 -222.58,-107.29 -319.53,-184.07 -8.94,22.03 -17.39,44.33 -24.76,67.42 -24.18,75.46 -45.17,151.98 -80.4,223.33 -34.37,69.61 -85.92,133.33 -151.57,175.68 -69.39,44.75 -154.41,48.79 -231.12,20.44 -6.93,-2.56 -85.82,-40 -70.74,-32.11 -122.14,300.69 -219.21,552.63 -272.26,715.26 -75.91,232.65 42.94,320.17 209.15,463.03 77.97,67.02 176.18,76.68 275,89.49 389.39,50.5 474.75,-481.31 582.56,-738.62 51.75,-123.5 166.51,-396.77 308.41,-733.74zm-5576.37 -1585.15c26.37,-17.4 52.11,-35.48 77.39,-54.09 -39.35,-128.88 -80.92,-257.29 -124.31,-384.5 -102.87,-301.33 -255.83,-583.4 -364.69,-884.75 -44.56,126.1 -75.23,253.4 -97.91,383.01 -25.69,146.68 -29.46,295.82 -53.33,442.53 -13.72,84.53 -16.66,169.06 -8.58,253.97 15.07,158.35 37.3,315.4 70.06,470.46l-1.58 0.43c-0.13,0.04 310.69,-100.24 502.95,-227.07zm741.15 1740.17c-24.63,2.76 -49.47,3.37 -74.44,1.2 -110.14,-9.53 -198.24,-72.2 -254.92,-165.28 -51.97,-85.39 -77.1,-184.07 -110.64,-277.36 -17.22,-47.81 -38.43,-94.41 -62.87,-139.21 -131.06,73.97 -272.53,119.68 -418.14,142.28 100.05,319.39 194.66,623.56 208.68,677.53l708.2 -238.71 4.14 -0.45zm6.5 -0.78l-4.91 0.6 4.45 -0.54 0.44 -0.06 0.02 -0.01zm10.81 -1.52l-4.62 0.68 0.59 -0.07 1.46 -0.22 1.44 -0.21 1.13 -0.18zm4080.53 -1973.18l0.39 0.27 -0.21 -0.15 -0.19 -0.13zm-282.86 -196.91l4.17 3.16c8.08,6.21 14.72,13.78 19.65,22.07 64.57,36.81 126.81,79.19 187.63,121.66 284.9,-801.15 589.14,-1660.95 629.71,-1767.93 38.07,-100.42 93.03,-136 194.74,-112.65 206.5,47.43 360.67,-37.94 497.57,-177.37 150.53,-153.25 230.99,-346.64 311.42,-540.81 63.56,-153.41 116.14,-311.39 194.79,-458.72 35.25,-65.99 45.53,-142.08 59.54,-215.4 10.33,-54.02 -18.25,-91.93 -61.03,-121.24 -112.6,-77.2 -239.14,-124.24 -367.25,-166.38 -254.03,-83.57 -519.29,-128.96 -769.76,-225.12 -68.93,-26.49 -139.06,-42.03 -207.79,3.98 -32.96,22.07 -62.13,48.14 -72.67,86.76 -69.96,256.47 -186.78,496.64 -261.35,751.32 -26.32,89.91 -53.75,180.28 -65.88,273.76 -28.12,216.5 33.42,395.1 221.92,519.38 22.08,14.57 44.17,29.47 64.22,46.61 66.14,56.43 86.22,135.72 53.43,215.35 -60.08,145.87 -358.57,985.94 -630.22,1743.71l-1.41 -1.07 -1.4 -1.06 -0.03 -0.02zm-98.39 -60.13l1.7 0.8 -1.63 -0.78 -0.07 -0.02zm-228.46 642.69c21.34,9.49 16.46,7.27 0.85,0.37l-0.85 -0.37zm-463.69 1276.24l-0.69 -0.28 0.01 0.01 0.68 0.27zm-3302.41 -1801.44c4.99,-4.11 9.99,-8.22 15,-12.31 70.26,-57.3 147.01,-112.89 234.28,-140.97l0 -0c-106.96,-347.84 -190.46,-628.55 -212.59,-718.79 -105.22,18.56 -210.2,29.52 -311.7,90.4 40.23,92.88 147.74,402.8 275.01,781.67zm303.16 -43.56c-86.75,25.29 -161.21,82.29 -228.75,140.47 -154.58,133.18 -305.61,269.69 -477.05,381.47 -165.65,107.98 -348.54,189.58 -539.89,239.62 -168.89,44.13 -344.55,64.41 -519.25,59.38 82.54,75.28 182.36,135.91 280.01,181.89 139.29,65.6 294.69,105.53 448.82,110.24 44.94,1.36 59.72,50.52 34.17,82.53 -141.13,176.85 -331.18,308.93 -542.32,386.15 320.28,66.15 661.58,55.94 950.13,-108.58 -15.38,-21.24 -31.44,-41.92 -48.5,-61.71 -6.38,-7.43 -12.99,-14.89 -19.67,-22.37 -17,9.67 -35.25,17.74 -50.78,25.74 -34.58,17.83 -69.88,34.18 -105.7,49.26 -34.71,14.65 -69.79,27.68 -105.81,38.72 -35.16,10.78 -73.58,24.64 -110.87,23.08 -13.81,-0.57 -18.47,-18.14 -6.94,-25.64 30.5,-19.78 68.17,-29.19 101.74,-42.56 32.87,-13.11 65.56,-27.06 97.73,-41.82 32.06,-14.69 63.57,-30.57 94.49,-47.57 14.83,-8.15 29.41,-16.71 43.96,-25.29 -16.74,-18.07 -33.81,-36.39 -50.69,-55.04 -21.61,13.71 -44.58,25.56 -66.97,37.24 -37.42,19.54 -76.3,34.69 -116.12,48.53 -15.09,5.28 -23.44,-17.17 -10.59,-25.13 34.4,-21.28 67.83,-44.14 101.72,-66.15 18.29,-11.87 35.94,-25.13 53.94,-37.69 -95.67,-112.88 -170.87,-239.24 -119.4,-393.91 37.48,-112.69 135.5,-156.69 242.76,-185.01 39.04,-10.35 78.34,-19.87 117.63,-29.29 87.94,-95.53 221.03,-146.49 330.85,-210.57 139.43,-81.41 267.98,-178.8 384.89,-290.12 4.39,-4.17 9.18,-6.43 13.96,-7.43 2.07,-20.18 3.65,-40.39 3.63,-60.78 0,-4.77 -0.5,-9.07 -1.14,-13.3 -67.53,66.07 -145.58,124.04 -220.51,180.92 -83.11,63.1 -168.78,122.84 -256.71,179.14 -172.63,110.48 -353.29,208.15 -540.96,290.64 -51.81,22.75 -104.64,42.47 -158.02,61.24 -56.71,19.89 -115.61,32.51 -172.38,52.22 -14.76,5.13 -21.11,-18.28 -6.42,-23.36 62.82,-21.8 122.27,-53.75 182.74,-81.28 58.3,-26.52 116.54,-53.43 174.49,-80.82 116.15,-54.94 229.72,-115.5 340.07,-181.32 110.42,-65.88 217.32,-137.73 320.53,-214.41 100.81,-74.93 192.54,-159.86 290.32,-238.13 -40.14,-15.51 -96.47,-9.89 -133.14,0.81zm111.28 635.68c-10.78,-14.17 -20.79,-28.59 -30.04,-43.82 -9.1,-15.09 -17.89,-30.44 -26.21,-45.97 -4.17,-7.75 -8.47,-15.48 -12.18,-23.44 -1.4,-2.97 -2.83,-6.07 -4.25,-9.14 -12.86,10 -25.86,19.67 -39.07,28.61 -6.63,4.5 -13.44,8.58 -20.15,12.86 1.31,2.82 2.65,5.61 3.96,8.42 9.11,19.22 18.85,38.25 26.83,57.96 7.33,18.08 14.52,36.2 21.75,54.36 3.62,9 7.68,17.96 10.71,27.22 0.22,0.72 0.39,1.5 0.64,2.26 26.92,-17.64 53.85,-35.26 80.87,-52.78 -4.33,-5.5 -8.64,-11 -12.86,-16.54zm-419.21 -63.06c191.94,-59.68 373.5,-166.03 460.89,-349.81 -100.5,89.63 -209.09,170.31 -325.04,238.9 -64.81,38.33 -132.78,70.76 -199.03,106.46 -24.41,13.13 -47.92,27.36 -71.52,41.47 45.17,-11.35 90.21,-23.18 134.69,-37.02zm315.67 150.39c-6.52,-8.18 -12.1,-17.09 -17.92,-25.79 -11,-16.51 -22.04,-33.06 -33.08,-49.58 -10.99,-16.46 -20.37,-34.08 -30.33,-51.19 -1.53,-2.65 -2.82,-5.44 -4.33,-8.13 -20.91,11.06 -42.36,21.04 -63.98,30.48 30.49,48.79 59.56,98.43 87.58,148.71 21.71,-13.56 43.32,-27.25 64.82,-41.19 -0.9,-1.15 -1.89,-2.21 -2.75,-3.31zm-214.22 -78.19c-19.03,6.98 -38.26,13.47 -57.59,19.68 1.15,2.18 2.26,4.36 3.39,6.47 5.06,9.59 10.11,19.18 15.17,28.76 9.5,17.97 18.98,35.94 28.46,53.92 9.47,17.97 19.31,35.8 28.44,53.93 4.86,9.63 9.81,19.53 14.03,29.67 24.46,-13 48.67,-26.47 72.47,-40.61 -34.43,-50.85 -69.37,-101.37 -104.36,-151.82zm-18.09 183.79c-11.78,-16.6 -23.02,-33.6 -34.53,-50.4 -11.49,-16.79 -23,-33.56 -34.52,-50.36 -6.13,-8.96 -12.28,-17.9 -18.39,-26.87 -4.12,-6.02 -8.33,-12.06 -11.24,-18.52 -15.26,4.35 -30.58,8.57 -45.94,12.65 5.57,11.11 9.83,23.24 14.5,32.86 9.92,20.35 20.71,40.15 31.25,60.17 10.22,19.4 20.26,38.85 31.1,57.9 6.97,12.2 14.68,25.41 20.44,39.06 18.75,-8.28 36.75,-16.94 53.51,-25.09 4.19,-2.04 8.25,-4.38 12.4,-6.43 -6.56,-8.11 -12.68,-16.64 -18.59,-24.96zm-106.49 44.83c-13.72,-18.82 -27.39,-37.89 -39.8,-57.59 -12.02,-19.07 -22.85,-38.98 -33.52,-58.85 -7.44,-13.96 -18.18,-30.28 -23.22,-46.93 -14.22,3.56 -28.42,7.07 -42.65,10.54 3.19,6.22 6.4,12.49 9.6,18.71 10.14,19.76 20.37,39.47 30.37,59.26 10.04,19.85 18.72,40.46 27.92,60.7 4.5,9.89 9.46,19.71 13.21,29.9 3.74,10.29 5.57,20.87 8.62,31.36 23.92,-4.21 47.82,-11.4 71.04,-20.07 -7.96,-8.64 -15.06,-18.17 -21.57,-27.04zm-90.19 34.43c-6.71,-8.53 -12.26,-17.81 -18.14,-26.92 -11.96,-18.64 -24.57,-37 -35.76,-56.13 -11.21,-19.11 -22.22,-38.33 -33.32,-57.54 -3.72,-6.43 -7.43,-12.83 -11.15,-19.26 -24.82,14.9 -42.14,45.64 -42.3,73.79 -0.17,41.83 33.68,74.26 69.93,89.65 27.08,11.48 55.87,14.67 85.04,12.5 -4.9,-5.2 -9.8,-10.41 -14.3,-16.1zm584.51 -518.19c-20.11,25.72 -42.09,50.03 -65.64,72.61 4.56,6.68 8.42,13.39 11.92,21.17 2.71,6.03 5.14,12.24 7.65,18.36 0.08,0.18 0.06,0.11 0.11,0.28 0.86,1.97 1.71,3.93 2.54,5.89 6.85,15.74 14.09,31.33 21.72,46.71 7.6,15.39 15.15,30.79 22.69,46.22 3.18,6.54 6.54,13 9.83,19.51 33.25,-20.9 66.81,-41.35 101.13,-60.46 -58.61,-39.35 -98.31,-101.52 -111.96,-170.29zm1857.32 -63.54c-199.49,-11.75 -398.56,-3.61 -597.1,18.33 -197.93,21.84 -394.96,55.91 -588.42,103.13 -213.17,52.06 -416.43,121.64 -604.37,236.5 -174.86,106.85 -343.46,238.98 -541.83,300.14 -89.71,27.68 -190.37,28.7 -265.89,-34.04 -57.68,-47.96 -77.5,-126.72 -43.57,-192.03 -18.75,4.97 -37.46,10.06 -55.98,15.43 -47.37,13.81 -96.06,31.76 -122.95,75.9 -22.32,36.64 -26.63,81.83 -21.79,123.78 12.15,105.47 88.73,186.58 159.47,259.19 84.18,86.36 162.76,174.85 222.35,280.49 54.86,97.3 86.86,202.07 124.41,306.53 29.68,82.53 69.57,175.29 153.98,214.44 105.2,48.86 231.92,-6.82 328.64,-51.09 209.2,-95.75 420.26,-185.44 639.07,-257.15 472.63,-154.94 984.37,-243.74 1481.08,-177.83 242.91,32.22 480.1,96.82 708.25,185.81 230.87,90.04 456.85,200.75 660.14,343.03 24.93,17.4 51.94,33.93 75.02,53.72 5.28,4.52 10.2,9.58 14.9,14.92 1.96,0.53 3.86,1.25 5.8,1.79 71.47,19 135.75,11.9 197.43,-29.74 52.57,-35.5 89.24,-93.21 113.72,-150.64 30.29,-71.08 47.7,-147.02 73.28,-219.76 25.86,-73.5 60.71,-142.17 102.87,-207.6 82.31,-127.74 180.35,-245.07 230.18,-390.82 14.97,-43.79 26.36,-88.87 34.26,-134.54 -73.36,50.86 -170.52,73.06 -256.03,61.85 -200.17,-26.19 -364.5,-173.53 -534.63,-270.46 -342.1,-194.9 -715.89,-327.15 -1100.86,-407.64 -194.18,-40.61 -393.59,-59.97 -591.44,-71.65zm1460 -281.39c-0.04,0.06 -0.02,-0.03 -0.04,-0.03 0,0 -0.03,-0.03 -0.06,-0.03 -2.89,4.53 -5.63,9.11 -8.31,13.75 -0.11,0.21 -1.51,3.35 -2.63,5.82 -0.87,2.48 -2.04,5.75 -2.09,5.98 -1.26,5.1 -2.43,10.18 -3.61,15.31 -0.14,2.98 -1.14,12.35 -1.17,15.35 -0.06,7.32 0.14,14.58 1.2,21.83 0.03,0.15 0.08,0.35 0.11,0.56 123.82,68.44 244.18,142.8 365.14,216.14 68.53,41.54 138.04,81.39 207.1,122.02 36.75,21.63 76.03,42.28 113.75,64.97 34.04,10.32 67.58,21.06 100.06,32.82 14.92,5.42 29.85,11.04 44.72,16.82 -171.25,-112.8 -335.37,-236.09 -506.18,-349.59 -99.02,-65.76 -202,-127.5 -307.98,-181.72zm54.15 203.81c87.97,91.44 200.65,146.52 320.28,188.69 -22.17,-13.86 -44.39,-27.67 -66.47,-41.61 -104.15,-65.76 -206.25,-135.07 -302.72,-211.65 13.14,23.65 30.33,45.25 48.92,64.57zm210.68 288.02c-9.22,17.24 -18.29,34.57 -27.28,51.94 -8.93,17.35 -17.11,35.17 -26.91,52.04 -4.87,8.42 -9.74,16.86 -14.58,25.31 -0.98,1.67 -2.19,3.13 -3.22,4.74 20.37,10.83 40.64,21.86 60.79,33.13 2.48,-6.41 5.03,-12.75 7.4,-18.97 7.82,-20.46 15.65,-40.89 23.47,-61.35 8.25,-21.57 17.25,-42.76 26.5,-63.94 3.15,-7.22 6.21,-14.26 9.36,-21.2 -15.49,-5.72 -30.85,-11.67 -46.17,-17.82 -3.33,5.58 -6.62,11.02 -9.37,16.13zm717.65 269.86c-2.87,4.39 -5.72,8.64 -8.33,12.64 -15.56,23.86 -32.3,46.97 -50.37,69.03 -27.1,33.03 -57.21,63.33 -88.9,91.98 20.22,-1.26 40.51,-4.33 60.72,-10.21 59.17,-17.25 109.56,-53.47 133.57,-107.57 -3.13,-9.44 -7.89,-18.57 -15.4,-27.24 -9.17,-10.56 -19.94,-19.89 -31.28,-28.64zm-218.9 169.9c0.56,-6.85 3.09,-13.61 8.09,-18.9 35.13,-36.94 64.39,-73.53 91.99,-115.72 13.72,-21.01 27.11,-42.32 39.4,-64.21 3.21,-5.76 6.24,-11.59 9.28,-17.43 -25.47,-15.18 -51.57,-29.07 -78.21,-41.82 -9.75,11.92 -20.07,23.48 -29.41,35.06 -17.04,21.21 -34.04,42.47 -51.58,63.26 -17.5,20.76 -34.57,41.98 -52.59,62.28 -9.28,10.44 -18.96,20.6 -28.43,30.86 -9,9.76 -19.22,18.13 -28.28,27.75 38.42,17.96 78.61,32.08 119.74,38.87zm-155.71 -56.86c0.44,-1.8 0.86,-3.6 1.93,-5.42 7.26,-12.04 12.46,-25.12 19.67,-37.25 7.2,-12.04 14.14,-24.26 21.53,-36.2 14.35,-23.12 29.82,-45.58 44.7,-68.33 14.96,-22.81 30.5,-45.2 45.99,-67.64 4.64,-6.75 9.22,-13.74 13.81,-20.8 -29.02,-11.53 -58.42,-22.24 -88.04,-32.33 -1.76,2.76 -3.54,5.53 -5.58,8.39 -7.47,10.4 -14.96,20.76 -22.14,31.36 -14.78,21.76 -28.97,44.04 -42.8,66.41 -13.43,21.65 -25.78,43.87 -37.85,66.28 -8.67,16.14 -17.39,35.25 -29.04,50.63 25.46,15.82 51.37,30.87 77.83,44.9zm-122.14 -73.1c2.46,-14.79 6.94,-29.47 11.39,-43.4 8.63,-27.08 20.29,-53.58 31.68,-79.58 10.63,-24.22 22.44,-47.64 35.58,-70.61 5.61,-9.83 11.46,-19.54 17.39,-29.18 -1.48,-0.44 -2.96,-0.94 -4.44,-1.4 -17.64,-5.53 -35.3,-11.02 -52.97,-16.49 -4.21,6.15 -8.48,12.25 -12.57,18.39 -16.1,24.24 -32.17,48.46 -48.28,72.69 -15.89,23.94 -30.82,49.2 -48.64,71.76 -5.52,6.99 -11.25,13.91 -16.94,20.81 29.4,18.75 58.5,38.03 87.8,57.01zm-127.09 -81.53c4.83,-12.53 9.69,-25.15 15.57,-37.18 14.22,-29.17 29.74,-57.82 44.6,-86.68 10.1,-19.63 20.18,-39.25 30.28,-58.86 -17.11,-5.44 -34.15,-10.98 -51.21,-16.67 -5.67,10.74 -12.07,21.14 -18.06,31.56 -11.1,19.29 -22.42,38.24 -34.38,56.98 -11.51,18.08 -23.03,36.14 -34.57,54.22 -4.25,6.68 -8.56,13.61 -12.97,20.51 20.37,11.82 40.61,23.83 60.74,36.11zm-225.99 -192.93c-8.67,18.32 -22.44,35.03 -39.07,47.87 22.56,11.02 44.98,22.28 67.26,33.79 0.19,-0.79 0.22,-1.59 0.44,-2.4 2.43,-9.44 4.94,-18.86 7.53,-28.28 5.3,-19.43 12.8,-38.41 19.61,-57.39 6.82,-19 13.8,-37.94 20.94,-56.86 1.72,-4.57 3.43,-9.15 5.17,-13.74 -5.65,-2.57 -11.37,-4.96 -17.03,-7.63 -16.04,-7.57 -32.25,-15.74 -48.4,-24.33 4.42,37.22 -0.08,74.47 -16.46,108.96zm1463.6 852.5c-33.25,-22.14 -29.18,-74.54 11.26,-86.17 160.65,-46.14 305.83,-135.04 421.82,-255.28 57.32,-59.44 106.57,-125.79 146.79,-197.94 19.94,-35.75 37.82,-72.74 52.47,-110.96 9.79,-25.43 23.07,-56.57 23.41,-85.82 -376.47,148.56 -803.67,124.78 -1159.39,-72.04 -276.89,-153.17 -518.22,-361.36 -788.44,-524.77 -15.74,6.03 -33.75,5.85 -48.29,-3.71 -48.67,-32.08 -108.7,-69.14 -164.97,-76.21 -21.22,-2.65 -38.94,-0.33 -53.36,4.71 396.42,159.76 712.67,467.8 1090,664.52 54.06,28.17 109.04,54.5 165.86,76.78 59.93,23.5 121.8,41.06 182.06,63.5 22.65,8.43 21.89,48.13 -6.17,45.63 -107.04,-9.46 -211.71,-51.19 -309.33,-94.21 -21.89,-9.64 -43.39,-20.04 -64.81,-30.65 9.61,9.94 18.78,20.25 26.74,31.36 22.28,30.93 31.76,65.99 34.72,102.25 9.94,4.28 19.97,8.39 29.71,13.08 32.03,15.48 64.33,30.46 96.97,44.61 66.35,28.72 135.04,51.92 202.79,77.13 31.86,11.82 19.72,60.71 -14.28,51.76 -72.3,-19 -141.06,-48.15 -208.39,-80.43 -33.08,-15.87 -65.56,-32.79 -97.28,-51.25 -3.04,-1.78 -6.02,-3.64 -9.04,-5.43 -1.18,24.03 -3.93,48.1 -6.97,71.38 -0.59,4.47 -1.51,8.86 -2.15,13.3 0.14,0.06 0.28,0.11 0.42,0.18 23.22,9.07 46.46,18.17 69.67,27.28 45.96,17.96 91.64,35.96 136.65,56.3 22.04,9.99 6.21,48.38 -16.67,39.49 -46,-17.89 -90.82,-37.96 -135.85,-58.18 -20.1,-9.03 -40.22,-18.08 -60.32,-27.11 -11.26,61.64 -28.08,121.96 -51.63,180.35 -27.21,67.61 -63.26,129.14 -102.11,189.01 8.09,2.68 16.13,5.59 24.18,8.04 15.78,4.86 31.68,9.52 47.56,14.11 31.28,9.14 62.86,17.78 94.36,26.03 12.49,3.26 20.07,17.07 16.68,29.41 -3.64,13.28 -16.68,19.11 -29.4,16.68 -16.78,-3.21 -33.94,-6.24 -50.35,-11.18 -15.86,-4.81 -31.52,-10.83 -46.97,-16.85 -16.21,-6.32 -31.97,-13.36 -47.54,-21.07 -9.54,-4.76 -19.06,-9.71 -28.25,-15.13 -9,13.43 -18.03,26.92 -27.15,40.32 2.56,1.13 5.15,2.24 7.79,3.33 10.92,4.44 21.71,8.97 32.53,13.69 22.94,10.02 46.36,18.94 70.06,27.03 47.81,16.32 97.36,27.06 144.61,44.82 21.13,7.94 20.38,44.17 -5.76,42.43 -53.96,-3.58 -104.7,-22.22 -154.12,-43.15 -24.1,-10.22 -47.82,-21.29 -71.04,-33.35 -11.98,-6.25 -23.47,-12.96 -34.79,-20.33 -3,-1.93 -5.93,-3.83 -8.81,-5.79 -7.57,11.1 -15.07,22.28 -22.59,33.44 35.98,23.18 70.58,49.24 106.42,72.22 48.35,31 98.48,59.14 150.33,83.91 102.5,48.96 211.53,83.24 320.02,116.21 25.3,7.68 22.14,50.96 -6.53,48.24 -119.07,-11.32 -231.35,-48.79 -338.82,-100.53 -53.3,-25.63 -104.92,-54.78 -154.43,-87.17 -37.03,-24.26 -76.39,-51.76 -109.46,-83.44 -4.87,7.6 -9.86,15.11 -14.63,22.79 -8.04,12.86 -15.36,25.86 -22.57,38.93 335.94,279.21 851.89,357.63 1246.25,158.44 87.63,-44.28 173.06,-107.03 211.43,-197.06 -243.96,6.4 -487.09,-61.81 -690.87,-197.49zm811.35 -3395.58c47.26,-16.28 114.07,5.13 147.53,51.48 37.17,51.57 50.15,109.13 19.18,169.29 -20.9,40.71 -45.46,80.75 -79.13,111.02 -81.14,72.89 -125.04,166.9 -162.26,272.63 -33.41,-16.47 -60.97,-30.08 -93.68,-46.22 86.15,-113.44 94.7,-240.69 78.43,-372.9 -2.03,-16.52 -1.17,-33.6 0.36,-50.22 5.46,-61 25.78,-113.11 89.57,-135.07zm-355.61 642.29c29.67,-8.64 66.56,11.76 89.92,-26 8.96,-14.47 25.07,3.13 36.76,7.83 26.39,10.69 47.47,31.35 76.83,37.71 69.69,15.17 121.9,50.67 148.62,121.8 16.14,42.97 42.94,81.96 71.82,135.43 -227.09,-27.11 -398.93,-140.41 -583.47,-256 60.61,-19.47 112.1,-6.99 159.52,-20.78zm-1862.39 5075.66c-32.92,78.35 -27.47,166.28 -70.78,241.23 -27.86,48.27 -60.14,86.63 -117.91,97.09 -50.17,9.08 -96.53,7.23 -129.29,-39.49 -34.06,-48.52 -33.08,-99.29 -7.19,-150.38 6.4,-12.61 15.63,-25.3 26.74,-33.84 118.6,-91.2 190.78,-213.72 238.69,-356.99 45.44,23.19 89.74,40.29 142.21,50.09 -22.01,69.44 -56.13,129.63 -82.47,192.29zm-3296.63 -111.99c-46.92,37.36 -93.43,65.32 -148.79,85.55 96.1,-54.13 73.6,-136.4 54.69,-215.82 -16.14,-67.81 -37.03,-134.47 -56.19,-201.56 -7.25,-25.37 -17.35,-50.23 -1.52,-80.24 50.56,137.23 101.11,274.48 151.81,412.07zm2792.04 -1223.19l-1.89 0.1c-16.67,0.93 -31.36,11.15 -38.04,26.47 -22.32,51.33 -44.86,103.11 -66.96,153.85 -9.43,21.7 -0.08,46.78 21.14,57.28 0.28,0.11 0.52,0.26 0.76,0.37 21.46,10.54 47.71,2.17 58.78,-19.01 26.72,-51.07 45.64,-104.47 69.01,-156.81 13.56,-30.28 -9.67,-64.13 -42.8,-62.25zm-240.92 571.85c33.07,-43.87 67.56,-87.02 96.06,-135 21.3,-35.85 -5.87,-83.37 -47.36,-78.98 -24.82,2.58 -48.26,14.28 -72.43,37.63 -53.33,51.39 -111.85,97.43 -163.39,151.07 -23.94,24.92 -16.17,66.56 14.76,81.96 68.6,34.12 117.57,15.88 172.36,-56.67zm1949.17 -6319.52c16.69,-34.67 39.36,-66.11 82.78,-49.07 39.07,15.36 38,51.13 27.51,86.29 -5.51,18.46 -10.44,37.11 -16.61,55.36 -31.58,93.57 -185.49,504.24 -228.33,616.57 -19.47,51.1 -43.22,101.96 -76.74,146.75 -13.96,18.67 -30.44,30.79 -55.21,24.35 -28.68,-7.47 -37.26,-29.93 -35.96,-55.4 1.22,-23.74 5.47,-47.76 11.94,-70.68 63.65,-225.36 154.01,-440.79 244.86,-656.02 14.06,-33.24 30.08,-65.62 45.75,-98.15zm399.33 81.71c19.18,-26.13 38.9,-54.43 75.58,-34.85 34.89,18.63 17.79,52.1 10.25,77.58 -19.11,64.46 -42.47,127.7 -58.04,173.46 -82.11,202.69 -156.56,387.79 -232.39,572.35 -12.71,30.97 -30.07,60.32 -47.83,88.79 -13.08,21.02 -31.62,37.57 -59.93,27.5 -28.22,-10.04 -32.67,-35.54 -30.13,-59.36 3.06,-28.39 11.33,-56.54 19.97,-83.96 57.29,-181.32 122.76,-359.68 199.47,-533.69 34.82,-79.04 71.43,-157.54 123.04,-227.82zm320.54 146.22c13.86,-31.33 36.18,-61.86 77.72,-46.43 41.72,15.48 38.29,51.93 27.71,85.56 -21.03,66.68 -44.57,132.51 -67.07,198.71 -62.65,174.53 -127.35,348.47 -204.93,517.17 -20.11,43.72 -43.89,85.87 -75.65,122.48 -15.33,17.67 -36.17,25.2 -58.2,12.21 -19.44,-11.41 -21.78,-30.85 -16.33,-50.87 5.06,-18.58 11.14,-36.97 17.83,-55.03 72.38,-194.31 144.57,-388.68 217.7,-582.69 25.51,-67.64 52,-135.03 81.22,-201.1zm-1074.44 -291.96c8.94,-19.61 19.43,-38.46 28.88,-57.83 12.43,-25.44 32.79,-34.82 59.36,-27.22 27.67,7.91 36.92,29.93 34.11,56.07 -1.75,16.44 -8.09,32.57 -13.46,48.46 -35.43,104.88 -71.17,209.63 -106.75,314.44 -34.76,102.54 -69.32,205.18 -104.65,307.53 -14.93,43.21 -32.57,85.18 -67.81,116.89 -24.46,22.03 -33.09,77.1 -79.96,53.35 -49.68,-25.19 -24.52,-73.01 -12.85,-109.37 76.36,-238.29 159.19,-474.26 263.12,-702.3zm-6331.26 214.69c-200.08,499.65 -93.41,944.53 247.99,1342.32 168.21,195.94 363.82,364.83 564.43,530.63 13.98,-23.42 -5.88,-36.87 -14.78,-48.99 -92.33,-125.86 -180.26,-255.93 -287.69,-369.28 -234.11,-246.93 -383.11,-535.36 -464.54,-865.56 -44.74,-181.47 -51.81,-361 -38.78,-544.2 0.48,-6.53 5.94,-12.71 9.07,-19.03 0.85,-2.58 1.59,-5.11 2.26,-7.56 12.31,-41.42 24.62,-82.79 36.94,-124.19 -30.64,30.72 -46.79,66.51 -54.91,105.85zm419.64 -424.89c-127.48,111.53 -230.84,237.07 -264.64,411.07 -50.43,259.53 -19.24,511.15 43.54,765.07 65.84,266.25 209.4,481.8 392.52,677.59 101.93,109 187.79,231.12 276.69,350.53 28.41,38.12 58.99,80.19 69.5,124.97 23.46,99.8 86.91,169.35 154.7,237.78 53.59,54.1 91.3,119.57 133.66,183.25 -1.69,-67.64 -26.24,-128.04 -52.68,-186.96 -56.07,-124.96 -130.86,-238.76 -209.33,-350.93 -140.99,-201.52 -285.95,-400.57 -409.05,-614.1 -148.87,-258.3 -235.63,-535.56 -264.58,-832.71 -26.71,-273.83 9.01,-532.17 165.13,-765.26 -14.02,-8.94 -28,-6.83 -35.45,-0.29zm-38.57 624.54c25.31,411.78 154.66,790.97 361.41,1145.57 132.51,227.31 293.42,435.53 438.94,654.1 21.04,31.58 40.18,64.44 62.52,100.4 0.82,-48.03 -21.07,-84.43 -39.74,-121.82 -138.85,-277.8 -295.45,-546.71 -420.72,-831.33 -145.15,-329.8 -256.98,-669.61 -305.48,-1028.41 -20.19,-149.33 -20.31,-296.53 25.63,-441.64 1.92,-5.98 -0.53,-13.39 -1.46,-28.67 -97.06,177.43 -132.92,359.67 -121.09,551.79zm846.65 1646.18c48.53,140.37 103.97,278.35 119.13,427.65 21.36,-1.47 42.91,-0.69 32.67,-27.07 -67.79,-174.21 -86.1,-359.99 -123.97,-540.89 -34.58,-165.08 -48.44,-334.4 -80.44,-500.14 -86.46,-447.61 -192.81,-889.29 -426.93,-1288.24 -15.61,-26.58 -31.69,-52.92 -47.53,-79.39 -3.19,0.37 -6.39,0.72 -9.58,1.1 31.06,106.04 61.05,212.46 93.53,318.08 49.63,161.39 85.65,326.21 122.8,490.54 46.15,204.43 110.68,404.06 152.44,609.57 40.73,200.44 101.17,395.75 167.88,588.78zm27.94 293.74c7.44,52.04 14.89,104.11 22.87,159.94 22.07,-3.8 46.64,5.28 28.92,-34.68 -18.04,-40.68 -43.02,-79.68 -51.79,-125.26zm-687.11 -2389.09c-5.13,0.47 -10.27,0.92 -15.35,1.39 -8.3,143.04 1.39,284.87 32.19,425.53 85.24,389.41 232.95,758 375.45,1128.35 7.29,18.92 11.45,40.89 44.89,61.5 -147.9,-546.94 -292.52,-1081.87 -437.17,-1616.76zm16.17 -185.78c493.92,544.8 629.81,1209.58 695.26,1913.89 29.11,-237.06 33.79,-461.47 28.85,-686.28 -2.54,-115.4 1.9,-231.57 -9.81,-346.04 -25.93,-253.37 -154.37,-456.76 -331.1,-632.5 -82.46,-82.01 -177.7,-148.08 -279.09,-204.75 -28.29,-15.83 -52.76,-40.9 -104.11,-44.32zm285.61 19.58c-29.83,-13.52 -59.99,-25.61 -108.86,-29.57 162.62,85.04 292.56,185.79 399.01,316.04 192.78,235.9 256.44,505.71 247.63,808.19 -9.47,324.75 -25.86,648.32 -53.8,971.85 -16.43,190.04 33.81,372.65 90.03,552.53 7.8,24.98 20.17,52.44 59.35,24.14 -21.82,-99.79 -13.04,-203.7 -22.85,-305.54 -7.24,-75.01 -24.7,-149.48 -31.61,-226.25 -18.9,-210.35 9.5,-416.18 38.07,-622.85 28,-202.67 50.22,-406.89 33.35,-610.92 -23.46,-283.29 -167.68,-508.24 -372.79,-696.21 -81.95,-75.08 -175.64,-135.29 -277.53,-181.42zm844.42 1258.13c15.92,-234.08 -4.46,-459.24 -111.63,-674.68 -68.67,-137.97 -122.47,-282.64 -236.46,-392.82 -36.18,-34.94 -72.2,-69.13 -122.13,-91.6 -2.17,24.68 16.72,30.36 27.03,40.69 198.06,198.85 330.06,430.68 356.83,714.8 13.22,140.14 -15,278.14 -24.11,417.12 -12.75,194.46 -66.91,382.28 -91.39,574.91 -12.67,99.87 -10.43,199.62 -8.78,299.57 59.58,-298.85 189.69,-580.39 210.63,-887.98zm1008.53 5580.96c8.36,34.51 57.61,36.56 67.9,2.56 28.31,-93.58 18.58,-206.8 -27.89,-269.14 -30.53,-40.94 -41.22,-91.16 -54.36,-140.07 -26.49,-98.27 -42.56,-199.56 -77.15,-294.53 -5.89,-16.11 -22.69,-27.17 -39.54,-23.78 -0.53,0.1 -1.04,0.2 -1.53,0.33 -18.57,4.17 -30.04,23.24 -26.98,42.03 37.5,230.72 104.03,453.09 159.56,682.59zm-157.39 -940.3c-14.54,-28.68 -26.35,-57.63 -39.74,-85.35 -10.22,-21.21 -37.29,-27.25 -56.68,-13.87 -31.57,21.79 -30.29,37.37 -13.65,86.15 3.39,9.94 5.02,19.68 5.35,29.41 1.22,34.74 32.19,60.72 66.61,55.8l1.71 -0.25c33.78,-4.83 51.83,-41.43 36.4,-71.89z"/>
 </g>
</svg>
